# xmcd CD database file
#
# Track frame offsets:
#	187
#	17592
#	43590
#	60892
#	75150
#	91185
#	101435
#	120842
#	138697
#	151530
#	164717
#	184672
#
# Disc length: 2833 seconds
#
# Revision: 10
# Processed by: cddbd v1.5.2PL0 Copyright (c) Steve Scherf et al.
# Submitted via: CDex 1.70beta3
#
DISCID=7d0b0f0c
DTITLE=THE HIGH-LOWS - THE HIGH-LOWS
DYEAR=1995
DGENRE=Rock
TTITLE0=グッドバイ
TTITLE1=ママミルク
TTITLE2=ミサイルマン
TTITLE3=BGM
TTITLE4=ジュー・ジュー
TTITLE5=ツイスト
TTITLE6=スーパーソニックジェットボーイ
TTITLE7=なまけ大臣
TTITLE8=ヤ・バンバ
TTITLE9=ビッグ・マシン
TTITLE10=バナナボートに銀の月
TTITLE11=日曜日よりの使者
EXTD=YEAR: 1995
EXTT0=
EXTT1=
EXTT2=
EXTT3=
EXTT4=
EXTT5=
EXTT6=
EXTT7=
EXTT8=
EXTT9=
EXTT10=
EXTT11=
PLAYORDER=
